{"title":"Hack! 2007 DVDRip Xvid BigPerm LKRG","uid":6620826,"size":1419415460,"categoryP":"video","categoryS":"movies","magnet":"?xt=urn:btih:5da39f1b678f88d66e6874cfd72c64fef266ebac&amp;dn=Hack%21+2007+DVDRip+Xvid+BigPerm+LKRG&amp;tr=udp%3A%2F%2Ftracker.openbittorrent.com%3A80&amp;tr=udp%3A%2F%2Fopen.demonii.com%3A1337&amp;tr=udp%3A%2F%2Ftracker.coppersurfer.tk%3A6969&amp;tr=udp%3A%2F%2Fexodus.desync.com%3A6969","seeders":0,"leechers":1,"uploader":".BONE.","files":2,"time":1313986080,"description":"PLOT\n\nWanting to raise their grades, a handful of college kids are randomly selected for\na field trip to study wildlife, but don't get the chance as clichÃƒÂ© horror film-style\nmurders occur.\n &lt;a href=&quot;\nhttp://www.imdb.com/title/tt0475289/&quot; rel=&quot;nofollow&quot; target=&quot;_NEW&quot;&gt;\nhttp://www.imdb.com/title/tt0475289/&lt;/a&gt;\n\n\nEncoded By .......: BigPerm1828\nRuntime ..........: 1h 29mn\nFile Size ........: 1.32 GB\nResolution .......: 672 x 336\nIMDb URL .........: http://www.imdb.com/title/tt0475289/\nGenre ............: Comedy | Horror\nLanguage .........: English\nVideo\nID : 0\nFormat : MPEG-4 Visual\nFormat profile : Advanced Simple@L5\nFormat settings, BVOP : Yes\nFormat settings, QPel : No\nFormat settings, GMC : No warppoints\nFormat settings, Matrix : Default (H.263)\nMuxing mode : Packed bitstream\nCodec ID : XVID\nCodec ID/Hint : XviD\nDuration : 1h 29mn\nBit rate : 1 918 Kbps\nWidth : 672 pixels\nHeight : 336 pixels\nDisplay aspect ratio : 2.000\nFrame rate : 29.970 fps\nColor space : YUV\nChroma subsampling : 4:2:0\nBit depth : 8 bits\nScan type : Progressive\nCompression mode : Lossy\nBits/(Pixel*Frame) : 0.283\nStream size : 1.20 GiB (90%)\nWriting library : XviD 1.2.1 (UTC 2008-12-04)\n\nAudio\nID : 1\nFormat : AC-3\nFormat/Info : Audio Coding 3\nMode extension : CM (complete main)\nCodec ID : 2000\nDuration : 1h 29mn\nBit rate mode : Constant\nBit rate : 192 Kbps\nChannel(s) : 2 channels\nChannel positions : Front: L R\nSampling rate : 48.0 KHz\nBit depth : 16 bits\nCompression mode : Lossy\nStream size : 122 MiB (9%)\nAlignment : Aligned on interleaves\nInterleave, duration : 33 ms (1.00 video frame)\nInterleave, preload duration : 512 ms\n &lt;a href=&quot;\nhttp://leetleech.org/images/26592638682236527529.png&quot; rel=&quot;nofollow&quot; target=&quot;_NEW&quot;&gt;\nhttp://leetleech.org/images/26592638682236527529.png&lt;/a&gt;\n &lt;a href=&quot;\nhttp://leetleech.org/images/87588396859791146586.png&quot; rel=&quot;nofollow&quot; target=&quot;_NEW&quot;&gt;\nhttp://leetleech.org/images/87588396859791146586.png&lt;/a&gt;\n &lt;a href=&quot;\nhttp://leetleech.org/images/20530693867312600282.png&quot; rel=&quot;nofollow&quot; target=&quot;_NEW&quot;&gt;\nhttp://leetleech.org/images/20530693867312600282.png&lt;/a&gt;\n &lt;a href=&quot;\nhttp://leetleech.org/images/47766163884213936256.png&quot; rel=&quot;nofollow&quot; target=&quot;_NEW&quot;&gt;\nhttp://leetleech.org/images/47766163884213936256.png&lt;/a&gt;\n &lt;a href=&quot;\nhttp://leetleech.org/images/74715803779977415972.png&quot; rel=&quot;nofollow&quot; target=&quot;_NEW&quot;&gt;\nhttp://leetleech.org/images/74715803779977415972.png&lt;/a&gt;","torrent":{"xt":"urn:btih:5da39f1b678f88d66e6874cfd72c64fef266ebac","amp;dn":"Hack%21+2007+DVDRip+Xvid+BigPerm+LKRG","amp;tr":["udp%3A%2F%2Ftracker.openbittorrent.com%3A80","udp%3A%2F%2Fopen.demonii.com%3A1337","udp%3A%2F%2Ftracker.coppersurfer.tk%3A6969","udp%3A%2F%2Fexodus.desync.com%3A6969"],"infoHash":"5da39f1b678f88d66e6874cfd72c64fef266ebac","infoHashBuffer":{"type":"Buffer","data":[93,163,159,27,103,143,136,214,110,104,116,207,215,44,100,254,242,102,235,172]},"announce":[],"urlList":[]}}